HIERARCHY
ROOT RootJoint
{
    OFFSET   0.000000   0.000000   0.000000
    CHANNELS 6 Xposition Yposition Zposition Xrotation Yrotation Zrotation
    JOINT pelvis_lowerback
    {
        OFFSET   0.000000   0.093605   0.000000
        CHANNELS 3 Xrotation Yrotation Zrotation
        JOINT lowerback_torso
        {
            OFFSET   0.000000   0.100000   0.000000
            CHANNELS 3 Xrotation Yrotation Zrotation
            JOINT torso_head
            {
                OFFSET   0.000000   0.282350   0.000000
                CHANNELS 3 Xrotation Yrotation Zrotation
                End Site
                {
                    OFFSET   0.000000   0.192650   0.000000
                }
            }
            JOINT rTorso_Clavicle
            {
                OFFSET  -0.001000   0.157500   0.000000
                CHANNELS 3 Xrotation Yrotation Zrotation
                JOINT rShoulder
                {
                    OFFSET  -0.117647   0.000000   0.000000
                    CHANNELS 3 Xrotation Yrotation Zrotation
                    JOINT rElbow
                    {
                        OFFSET  -0.245000   0.000000   0.000000
                        CHANNELS 3 Xrotation Yrotation Zrotation
                        JOINT rWrist
                        {
                            OFFSET  -0.240000   0.000000   0.000000
                            CHANNELS 3 Xrotation Yrotation Zrotation
                            End Site
                            {
                                OFFSET  -0.116353  -0.002500   0.000000
                            }
                        }
                    }
                }
            }
            JOINT lTorso_Clavicle
            {
                OFFSET   0.001000   0.157500   0.000000
                CHANNELS 3 Xrotation Yrotation Zrotation
                JOINT lShoulder
                {
                    OFFSET   0.117647   0.000000   0.000000
                    CHANNELS 3 Xrotation Yrotation Zrotation
                    JOINT lElbow
                    {
                        OFFSET   0.245000   0.000000   0.000000
                        CHANNELS 3 Xrotation Yrotation Zrotation
                        JOINT lWrist
                        {
                            OFFSET   0.240000   0.000000   0.000000
                            CHANNELS 3 Xrotation Yrotation Zrotation
                            End Site
                            {
                                OFFSET   0.116353  -0.002500   0.000000
                            }
                        }
                    }
                }
            }
        }
    }
    JOINT rHip
    {
        OFFSET  -0.100000  -0.051395   0.000000
        CHANNELS 3 Xrotation Yrotation Zrotation
        JOINT rKnee
        {
            OFFSET   0.000000  -0.410000   0.000000
            CHANNELS 3 Xrotation Yrotation Zrotation
            JOINT rAnkle
            {
                OFFSET   0.000000  -0.390000   0.000000
                CHANNELS 3 Xrotation Yrotation Zrotation
                JOINT rToeJoint
                {
                    OFFSET   0.000000  -0.050000   0.130000
                    CHANNELS 3 Xrotation Yrotation Zrotation
                    End Site
                    {
                        OFFSET  -0.010000   0.002000   0.060000
                    }
                }
            }
        }
    }
    JOINT lHip
    {
        OFFSET   0.100000  -0.051395   0.000000
        CHANNELS 3 Xrotation Yrotation Zrotation
        JOINT lKnee
        {
            OFFSET   0.000000  -0.410000   0.000000
            CHANNELS 3 Xrotation Yrotation Zrotation
            JOINT lAnkle
            {
                OFFSET   0.000000  -0.390000   0.000000
                CHANNELS 3 Xrotation Yrotation Zrotation
                JOINT lToeJoint
                {
                    OFFSET   0.000000  -0.050000   0.130000
                    CHANNELS 3 Xrotation Yrotation Zrotation
                    End Site
                    {
                        OFFSET   0.010000   0.002000   0.060000
                    }
                }
            }
        }
    }
}
MOTION
Frames: 14
Frame Time:   0.008333
 -2.427107   0.925009   4.033980   2.596439   2.979973   2.878871  -3.015558  -0.973028  -0.247461 -11.977191  -2.224051  -1.403537  -3.963681  -4.281961  -1.293134  -5.449139  19.808876 -24.833287 -36.541201  37.956427 -23.872231  -0.000054  35.051932   0.000072  10.021888   7.678450 -15.670291  -9.611747 -19.256877  26.574487 -40.071514 -31.580425  14.757290   0.000303 -41.450798   0.000524   8.640410  -7.581376  19.820701   1.494930  -5.030434  -4.397187  -0.000000   0.000000   0.000000  -3.512414 -11.504294   1.344894  -0.739166   0.000000   0.000000  -0.633621   1.065716   4.079269   4.464667   0.000001  -0.000002   2.225632   4.524086  -1.129126 -12.694304   0.000007  -0.000030
 -2.427237   0.925031   4.033889   2.618308   2.970315   2.883550  -3.057817  -0.994666  -0.251426 -11.959451  -2.239460  -1.381958  -3.968364  -4.260536  -1.292528  -5.400447  19.765331 -24.856135 -36.549087  37.959269 -23.862962  -0.000027  35.073318   0.000037  10.019502   7.670505 -15.727569  -9.568108 -19.234709  26.588541 -40.158486 -31.594141  14.734358   0.000286 -41.361612   0.000497   8.639380  -7.574815  19.886323   1.463890  -5.021573  -4.394857  -0.000000   0.000000   0.000000  -3.505086 -11.501294   1.336631  -0.739403   0.000000   0.000000  -0.653286   1.071470   4.076418   4.445854   0.000002  -0.000000   2.261332   4.565443  -1.135102 -12.714078   0.000007  -0.000030
 -2.427374   0.925052   4.033782   2.641150   2.956100   2.887511  -3.096693  -1.018462  -0.254169 -11.944041  -2.256203  -1.361823  -3.973926  -4.239331  -1.291028  -5.353872  19.722505 -24.877910 -36.555317  37.963318 -23.853212  -0.000004  35.095858   0.000006  10.017778   7.663907 -15.774857  -9.527667 -19.213792  26.602354 -40.240259 -31.605282  14.712492   0.000270 -41.276393   0.000476   8.638494  -7.568521  19.949079   1.430201  -5.010385  -4.391559  -0.000000   0.000000   0.000000  -3.495833 -11.495812   1.329197  -0.739936   0.000000   0.000000  -0.672398   1.076818   4.075300   4.423588   0.000002   0.000002   2.297888   4.604915  -1.139385 -12.732742   0.000007  -0.000029
 -2.427517   0.925074   4.033662   2.662546   2.939449   2.890830  -3.131532  -1.042780  -0.256143 -11.928651  -2.273449  -1.343039  -3.979280  -4.219629  -1.289514  -5.310353  19.682043 -24.898253 -36.560977  37.967358 -23.843888   0.000014  35.117136  -0.000018  10.016350   7.658104 -15.816579  -9.489968 -19.194551  26.615281 -40.316953 -31.615588  14.691781   0.000252 -41.196602   0.000454   8.637472  -7.562508  20.009741   1.396936  -4.998060  -4.387260  -0.000000   0.000000   0.000000  -3.485333 -11.488959   1.322534  -0.740736   0.000000   0.000000  -0.690613   1.081798   4.075821   4.401831   0.000003   0.000004   2.333675   4.641993  -1.142818 -12.750697   0.000007  -0.000027
 -2.427664   0.925095   4.033532   2.682119   2.921409   2.893686  -3.162648  -1.066891  -0.257597 -11.912963  -2.290742  -1.325475  -3.984279  -4.201653  -1.288117  -5.269905  19.644059 -24.917165 -36.566311  37.971214 -23.835107   0.000027  35.136986  -0.000035  10.015066   7.652769 -15.855207  -9.454657 -19.176773  26.627356 -40.388789 -31.625433  14.672032   0.000232 -41.122164   0.000431   8.636338  -7.556829  20.067681   1.364794  -4.985162  -4.382189  -0.000000   0.000000   0.000000  -3.473952 -11.481282   1.316543  -0.741753   0.000000   0.000000  -0.707986   1.086441   4.077614   4.381406   0.000003   0.000005   2.368484   4.676770  -1.145575 -12.768194   0.000007  -0.000024
 -2.427914   0.925113   4.033306   2.710310   2.872600   2.887340  -3.131755  -1.125376  -0.276607 -11.812624  -2.340423  -1.363497  -4.077764  -4.431346  -1.252158  -5.340654  19.534859 -24.889668 -36.612928  37.970412 -23.858032   0.000036  35.148982  -0.000059  10.009068   7.644545 -15.923067  -9.665650 -18.942910  26.959993 -40.529999 -31.777919  14.719374   0.000540 -41.024291   0.000409   8.640222  -7.587061  19.771122   1.314259  -4.954797  -4.362428  -0.000000   0.000000   0.000000  -3.450987 -11.458258   1.314296  -0.745272   0.000001   0.000000  -0.734384   1.097378   4.097188   4.360795   0.000006   0.000011   2.398534   4.715628  -1.149304 -12.775907   0.000007  -0.000019
 -2.427894   0.925065   4.033106   2.744873   2.891535   2.848738  -3.090409  -1.112973  -0.212839 -11.723331  -2.324983  -1.235691  -4.131765  -4.078429  -1.304493  -5.595364  19.243231 -25.182376 -36.663051  38.164818 -24.002497   0.000025  35.150136  -0.000049  10.020591   7.702831 -15.492992  -9.790717 -18.885702  26.819570 -40.650719 -31.782339  14.802961   0.000461 -40.988981   0.000324   8.633897  -7.557145  20.071846   1.268755  -4.959914  -4.325040  -0.000000   0.000000   0.000000  -3.436244 -11.468292   1.317849  -0.746534   0.000000   0.000000  -0.785112   1.107505   4.119623   4.358851   0.000004   0.000008   2.507850   4.760298  -1.135566 -13.422097   0.000121  -0.000414
 -2.428016   0.925093   4.033110   2.770374   2.901662   2.862495  -3.139439  -1.132631  -0.219995 -11.746843  -2.338899  -1.246133  -4.070294  -4.115160  -1.292854  -5.579847  19.250128 -25.090852 -36.716743  38.135113 -24.024950  -0.000014  35.221410  -0.000014  10.014213   7.662198 -15.790618  -9.746675 -18.889422  26.772078 -40.739459 -31.785748  14.748163   0.000394 -40.929492   0.000337   8.629525  -7.543786  20.214883   1.242015  -4.960143  -4.332048  -0.000000   0.000000   0.000000  -3.438084 -11.476784   1.307583  -0.746129   0.000000   0.000000  -0.803970   1.144964   4.101779   4.336975   0.000002  -0.000002   2.523205   4.809991  -1.147555 -12.530390   0.000074   0.000419
 -2.428164   0.925107   4.033115   2.780782   2.893485   2.868074  -3.190479  -1.156352  -0.228740 -11.741826  -2.357130  -1.242832  -4.067416  -4.120311  -1.289397  -5.539005  19.209062 -25.049272 -36.748043  38.103082 -24.005687   0.000003  35.246641  -0.000030  10.002854   7.642327 -15.951559  -9.708008 -18.868712  26.742426 -40.810606 -31.782170  14.700814   0.000337 -40.855142   0.000348   8.622569  -7.538930  20.285062   1.230430  -4.951886  -4.328383  -0.000000   0.000000   0.000000  -3.438520 -11.475766   1.300292  -0.746824   0.000000   0.000000  -0.804843   1.168653   4.099603   4.320914   0.000002  -0.000004   2.522840   4.843168  -1.149475 -12.583474   0.000064   0.000314
 -2.428322   0.925119   4.033097   2.786280   2.876627   2.871421  -3.235943  -1.179829  -0.236427 -11.729241  -2.374348  -1.236935  -4.071488  -4.116495  -1.286393  -5.494416  19.161509 -25.023433 -36.768839  38.076917 -23.985839   0.000016  35.265973  -0.000043   9.995770   7.634322 -16.021011  -9.673962 -18.846145  26.721290 -40.875016 -31.778233  14.660862   0.000292 -40.782431   0.000351   8.616716  -7.535942  20.333700   1.221640  -4.939643  -4.321836  -0.000000   0.000000   0.000000  -3.436292 -11.469995   1.294480  -0.747992   0.000000   0.000000  -0.803333   1.189264   4.102103   4.310412   0.000002  -0.000003   2.522726   4.873497  -1.151538 -12.627803   0.000055   0.000239
 -2.428485   0.925131   4.033054   2.789509   2.856177   2.873674  -3.275868  -1.202257  -0.243108 -11.713615  -2.390321  -1.230776  -4.075573  -4.110144  -1.283510  -5.451254  19.115424 -25.006077 -36.784727  38.056494 -23.969233   0.000027  35.284283  -0.000053   9.990345   7.630501 -16.057883  -9.643166 -18.825236  26.705944 -40.934645 -31.776031  14.626081   0.000254 -40.714244   0.000346   8.611180  -7.533299  20.378068   1.213236  -4.925800  -4.313909  -0.000000   0.000000   0.000000  -3.431906 -11.462132   1.289488  -0.749426   0.000000   0.000000  -0.802195   1.208038   4.106832   4.302993   0.000002  -0.000002   2.525143   4.901764  -1.152998 -12.665619   0.000047   0.000183
 -2.428650   0.925143   4.032991   2.791291   2.834646   2.875041  -3.310994  -1.223555  -0.248980 -11.696496  -2.405292  -1.224871  -4.078812  -4.103382  -1.280806  -5.410786  19.072408 -24.994513 -36.797721  38.040587 -23.955985   0.000034  35.302051  -0.000060   9.985555   7.628052 -16.083982  -9.614797 -18.806360  26.695049 -40.990092 -31.775774  14.595069   0.000221 -40.650915   0.000334   8.605786  -7.530773  20.420954   1.204840  -4.911563  -4.304943  -0.000000   0.000000   0.000000  -3.425884 -11.453498   1.285135  -0.751056   0.000000   0.000000  -0.801850   1.225408   4.113044   4.297298   0.000002  -0.000002   2.529975   4.928292  -1.153788 -12.697514   0.000041   0.000140
 -2.428816   0.925154   4.032910   2.791961   2.813271   2.875609  -3.342049  -1.243750  -0.254204 -11.678645  -2.419434  -1.219333  -4.081234  -4.096933  -1.278300  -5.373230  19.032630 -24.987215 -36.808688  38.028179 -23.945638   0.000039  35.319216  -0.000065   9.981079   7.626072 -16.106313  -9.588417 -18.789355  26.687648 -41.041694 -31.777173  14.567036   0.000192 -40.592211   0.000317   8.600521  -7.528377  20.462261   1.196483  -4.897538  -4.295115  -0.000000   0.000000   0.000000  -3.418623 -11.444748   1.281337  -0.752836   0.000000   0.000000  -0.802256   1.241620   4.120368   4.292646   0.000002  -0.000001   2.536695   4.953278  -1.153983 -12.724029   0.000036   0.000108
 -2.428961   0.925167   4.032830   2.780856   2.803448   2.878390  -3.357326  -1.262073  -0.251914 -11.662155  -2.437434  -1.225978  -4.063331  -4.090518  -1.272621  -5.324181  18.997924 -24.979925 -36.828538  38.018777 -23.957843   0.000023  35.301595  -0.000038   9.975699   7.623848 -16.132263  -9.560875 -18.779783  26.680943 -41.106160 -31.783404  14.541370   0.000174 -40.539655   0.000304   8.592133  -7.527692  20.497876   1.201595  -4.894124  -4.287754  -0.000000   0.000000   0.000000  -3.414694 -11.437892   1.272051  -0.753039   0.000000   0.000000  -0.787335   1.253512   4.122329   4.277683   0.000002  -0.000001   2.550976   4.986674  -1.152587 -12.744731   0.000031   0.000080
